<?xml version="1.0" encoding="UTF-8"?>
<svg xmlns="http://www.w3.org/2000/svg" xmlns:xlink="http://www.w3.org/1999/xlink" width="160px" height="160px" viewBox="0 0 160 160" version="1.1">
<g id="surface1">
<path style=" stroke:none;fill-rule:nonzero;fill:rgb(10.196078%,10.196078%,10.196078%);fill-opacity:1;" d="M 99.113281 46.691406 C 98.632812 46.78125 98.144531 46.828125 97.660156 46.902344 C 97.539062 46.921875 97.414062 46.941406 97.289062 46.960938 C 102.007812 51.484375 104.945312 57.847656 104.945312 64.90625 C 104.945312 70.628906 103.015625 75.40625 99.773438 79.035156 C 100.261719 78.921875 100.753906 78.828125 101.25 78.765625 C 101.292969 78.765625 101.335938 78.765625 101.378906 78.769531 C 101.539062 78.777344 101.699219 78.800781 101.859375 78.835938 C 104.746094 75.113281 106.433594 70.40625 106.433594 64.90625 C 106.433594 57.84375 103.648438 51.425781 99.113281 46.691406 Z M 57.722656 51.023438 C 55.210938 55.054688 53.761719 59.8125 53.761719 64.90625 C 53.761719 71.210938 55.980469 76.46875 59.679688 80.402344 C 59.746094 80.332031 59.820312 80.265625 59.894531 80.203125 C 60.214844 79.941406 60.582031 79.753906 60.976562 79.628906 C 57.402344 75.933594 55.25 70.945312 55.25 64.90625 C 55.25 59.96875 56.691406 55.367188 59.171875 51.5 C 58.667969 51.410156 58.179688 51.246094 57.722656 51.023438 Z M 130.597656 60.472656 C 130.421875 60.472656 130.28125 60.492188 130.214844 60.53125 L 122.082031 67.304688 C 121.765625 70.960938 121.65625 75.203125 121.277344 79.980469 L 114.644531 78.296875 C 114.257812 78.316406 114.648438 79.714844 115.144531 79.90625 L 121.085938 82.183594 C 121.050781 82.546875 121.015625 82.910156 120.976562 83.277344 C 117.09375 86.277344 113.117188 89.417969 109.019531 92.070312 C 107.613281 90.328125 106.046875 88.71875 104.351562 87.253906 C 104.171875 87.722656 103.894531 88.152344 103.546875 88.511719 C 111.046875 95.050781 115.785156 104.679688 115.785156 115.417969 C 115.785156 135.136719 99.816406 146.046875 80.097656 146.046875 C 60.378906 146.046875 44.410156 135.136719 44.410156 115.417969 C 44.410156 104.089844 49.683594 94.003906 57.90625 87.464844 C 57.625 87.023438 57.4375 86.523438 57.378906 86.003906 C 55.617188 87.367188 53.980469 88.878906 52.492188 90.53125 C 49.890625 85.390625 47.9375 80.5625 45.152344 76.054688 L 37.976562 74.132812 L 36.9375 67.746094 L 41.253906 62.53125 C 41.382812 62.269531 40.742188 61.957031 40.632812 62.054688 L 35.359375 67.152344 L 35.484375 73.464844 L 29.605469 71.890625 L 24.675781 62.515625 C 24.425781 62.367188 24.0625 63.121094 23.9375 63.632812 C 23.894531 63.800781 23.878906 63.945312 23.902344 64.015625 L 28.566406 73.515625 C 32.042969 74.6875 36.140625 75.792969 40.695312 77.289062 L 37.496094 83.335938 C 37.421875 83.714844 38.871094 83.667969 39.175781 83.230469 L 42.789062 77.996094 C 43.132812 78.113281 43.476562 78.234375 43.824219 78.359375 C 45.832031 82.859375 48.550781 88.695312 50.183594 93.355469 C 45.621094 99.527344 42.921875 107.160156 42.921875 115.417969 C 42.921875 135.941406 59.574219 147.535156 80.097656 147.535156 C 100.621094 147.535156 117.273438 135.941406 117.273438 115.417969 C 117.273438 107.75 114.949219 100.625 110.964844 94.703125 C 115.261719 91.0625 119.898438 87.695312 123.527344 84.023438 L 123.703125 76.597656 L 129.664062 74.078125 L 135.75 77.046875 C 136.035156 77.105469 136.191406 76.410156 136.070312 76.328125 L 129.871094 72.402344 L 123.765625 74.019531 L 123.90625 67.933594 L 131.859375 60.929688 C 131.9375 60.652344 131.121094 60.476562 130.597656 60.472656 Z M 130.597656 60.472656 "/>
<path style=" stroke:none;fill-rule:nonzero;fill:rgb(100%,35.686275%,0%);fill-opacity:1;" d="M 80.140625 61.957031 C 76.726562 62.050781 76.398438 67.820312 80.140625 68.132812 C 86.320312 68.222656 95.171875 67.378906 97.328125 66.128906 C 95.230469 64.957031 87.046875 62.925781 80.480469 61.96875 C 80.363281 61.957031 80.25 61.953125 80.140625 61.957031 Z M 80.140625 61.957031 "/>
<path style=" stroke:none;fill-rule:nonzero;fill:rgb(10.196078%,10.196078%,10.196078%);fill-opacity:1;" d="M 71.167969 72.902344 C 70.417969 72.902344 69.8125 73.507812 69.8125 74.257812 C 69.8125 75.003906 70.417969 75.609375 71.167969 75.609375 C 71.914062 75.609375 72.519531 75.003906 72.519531 74.257812 C 72.519531 73.507812 71.914062 72.902344 71.167969 72.902344 Z M 89.03125 72.902344 C 88.28125 72.902344 87.675781 73.507812 87.675781 74.257812 C 87.675781 75.003906 88.28125 75.609375 89.03125 75.609375 C 89.777344 75.609375 90.386719 75.003906 90.386719 74.257812 C 90.386719 73.507812 89.777344 72.902344 89.03125 72.902344 Z M 74.308594 75.511719 C 73.558594 75.511719 72.953125 76.117188 72.953125 76.867188 C 72.953125 77.613281 73.558594 78.222656 74.308594 78.222656 C 75.054688 78.222656 75.664062 77.613281 75.664062 76.867188 C 75.664062 76.117188 75.054688 75.511719 74.308594 75.511719 Z M 85.871094 75.511719 C 85.121094 75.511719 84.515625 76.117188 84.515625 76.867188 C 84.515625 77.613281 85.121094 78.222656 85.871094 78.222656 C 86.617188 78.222656 87.222656 77.613281 87.222656 76.867188 C 87.222656 76.117188 86.617188 75.511719 85.871094 75.511719 Z M 78.0625 76.664062 C 77.3125 76.664062 76.707031 77.273438 76.707031 78.019531 C 76.707031 78.769531 77.3125 79.375 78.0625 79.375 C 78.808594 79.375 79.417969 78.769531 79.417969 78.019531 C 79.417969 77.273438 78.808594 76.664062 78.0625 76.664062 Z M 81.976562 76.664062 C 81.226562 76.664062 80.621094 77.273438 80.621094 78.019531 C 80.621094 78.769531 81.226562 79.375 81.976562 79.375 C 82.722656 79.375 83.332031 78.769531 83.332031 78.019531 C 83.332031 77.273438 82.722656 76.664062 81.976562 76.664062 Z M 81.976562 76.664062 "/>
<path style=" stroke:none;fill-rule:nonzero;fill:rgb(10.196078%,10.196078%,10.196078%);fill-opacity:1;" d="M 71.574219 52.816406 C 69.496094 52.816406 67.8125 54.5 67.8125 56.578125 C 67.8125 58.65625 69.496094 60.34375 71.574219 60.34375 C 73.652344 60.34375 75.339844 58.65625 75.339844 56.578125 C 75.339844 54.5 73.652344 52.816406 71.574219 52.816406 Z M 88.621094 52.816406 C 86.542969 52.816406 84.859375 54.5 84.859375 56.578125 C 84.859375 58.660156 86.542969 60.34375 88.621094 60.34375 C 90.699219 60.34375 92.386719 58.65625 92.386719 56.578125 C 92.386719 54.5 90.699219 52.816406 88.621094 52.816406 Z M 73.457031 55.023438 C 74.175781 55.023438 74.761719 55.609375 74.761719 56.328125 C 74.761719 57.050781 74.175781 57.632812 73.457031 57.632812 C 72.738281 57.632812 72.152344 57.050781 72.152344 56.328125 C 72.152344 55.609375 72.738281 55.023438 73.457031 55.023438 Z M 90.503906 55.023438 C 91.222656 55.023438 91.808594 55.609375 91.808594 56.328125 C 91.808594 57.050781 91.222656 57.632812 90.503906 57.632812 C 89.78125 57.632812 89.199219 57.050781 89.199219 56.328125 C 89.199219 55.609375 89.78125 55.023438 90.503906 55.023438 Z M 90.503906 55.023438 "/>
<path style=" stroke:none;fill-rule:nonzero;fill:rgb(10.196078%,10.196078%,10.196078%);fill-opacity:1;" d="M 80.097656 99.820312 C 77.992188 99.820312 76.285156 100.941406 76.285156 102.328125 C 76.285156 103.714844 77.992188 104.839844 80.097656 104.839844 C 82.203125 104.839844 83.914062 103.714844 83.914062 102.328125 C 83.914062 100.941406 82.203125 99.820312 80.097656 99.820312 Z M 80.097656 109.375 C 77.992188 109.375 76.285156 110.496094 76.285156 111.882812 C 76.285156 113.269531 77.992188 114.394531 80.097656 114.390625 C 82.207031 114.390625 83.914062 113.269531 83.914062 111.882812 C 83.914062 110.496094 82.203125 109.375 80.097656 109.375 Z M 80.097656 118.929688 C 77.992188 118.929688 76.285156 120.050781 76.285156 121.4375 C 76.285156 122.824219 77.992188 123.945312 80.097656 123.945312 C 82.203125 123.945312 83.914062 122.824219 83.914062 121.4375 C 83.914062 120.050781 82.203125 118.929688 80.097656 118.929688 Z M 80.097656 118.929688 "/>
<path style=" stroke:none;fill-rule:nonzero;fill:rgb(83.137255%,0%,0%);fill-opacity:1;" d="M 74.800781 12.464844 C 73.613281 12.464844 72.347656 12.503906 70.988281 12.570312 C 68.253906 12.9375 66.066406 13.4375 64.316406 14.042969 C 64.273438 14.054688 64.226562 14.0625 64.183594 14.070312 C 60.222656 15.164062 56.285156 16.285156 51.753906 18.757812 C 47.324219 21.175781 43.730469 23.945312 41.613281 26.378906 C 40.933594 26.136719 40.261719 25.902344 39.628906 25.632812 C 39.625 25.632812 39.625 25.628906 39.621094 25.628906 C 39.34375 25.515625 39.007812 25.363281 38.585938 25.285156 C 38.582031 25.285156 38.578125 25.285156 38.574219 25.285156 C 38.390625 25.253906 38.214844 25.242188 38.046875 25.238281 C 37.992188 25.238281 37.9375 25.238281 37.882812 25.238281 C 37.664062 25.246094 37.464844 25.265625 37.277344 25.285156 C 37.273438 25.289062 37.269531 25.289062 37.265625 25.289062 C 37.195312 25.296875 37.121094 25.308594 37.050781 25.316406 C 37.007812 25.320312 36.960938 25.332031 36.917969 25.34375 C 36.574219 25.445312 36.351562 25.578125 36.207031 25.636719 C 36.195312 25.640625 36.1875 25.644531 36.179688 25.648438 C 35.84375 25.792969 35.519531 25.933594 35.195312 26.070312 C 35.109375 26.078125 34.957031 26.078125 34.679688 26.109375 C 34.675781 26.109375 34.675781 26.109375 34.675781 26.109375 C 34.269531 26.140625 33.839844 26.171875 33.386719 26.242188 C 33.355469 26.246094 33.320312 26.253906 33.289062 26.265625 C 32.703125 26.433594 32.34375 26.824219 32.09375 27.132812 C 32.085938 27.140625 32.082031 27.148438 32.074219 27.15625 C 31.734375 27.613281 31.511719 28.015625 31.273438 28.324219 C 30.84375 28.585938 30.375 28.871094 29.925781 29.269531 C 29.875 29.3125 29.832031 29.359375 29.796875 29.414062 C 29.472656 29.875 29.425781 30.324219 29.363281 30.601562 C 29.359375 30.628906 29.355469 30.652344 29.351562 30.675781 C 29.308594 31.042969 29.269531 31.410156 29.226562 31.773438 C 29.210938 31.800781 29.117188 31.929688 28.949219 32.210938 C 28.757812 32.503906 28.566406 32.796875 28.375 33.085938 C 28.320312 33.167969 28.28125 33.257812 28.257812 33.351562 C 28.085938 34.082031 28.191406 34.804688 28.425781 35.433594 L 28.417969 35.40625 C 28.554688 35.816406 28.667969 36.183594 28.726562 36.519531 C 28.699219 37.03125 28.617188 37.609375 28.628906 38.265625 C 28.632812 38.339844 28.644531 38.414062 28.664062 38.484375 C 28.832031 39.066406 29.195312 39.457031 29.480469 39.75 C 29.5 39.765625 29.519531 39.785156 29.539062 39.800781 C 29.890625 40.097656 30.222656 40.351562 30.535156 40.605469 C 30.773438 41.09375 31.011719 41.578125 31.25 42.0625 C 31.28125 42.128906 31.320312 42.1875 31.367188 42.242188 C 31.8125 42.757812 32.40625 42.976562 32.929688 43.070312 C 33.4375 43.167969 33.898438 43.214844 34.292969 43.308594 C 34.304688 43.308594 34.3125 43.3125 34.324219 43.3125 C 34.335938 43.324219 34.347656 43.332031 34.359375 43.339844 C 34.785156 43.644531 35.210938 43.953125 35.640625 44.265625 C 35.695312 44.308594 35.757812 44.34375 35.824219 44.367188 C 36.6875 44.707031 37.644531 44.652344 38.457031 44.269531 C 38.863281 44.085938 39.242188 43.898438 39.613281 43.730469 C 39.640625 43.730469 39.679688 43.726562 39.746094 43.71875 C 40.320312 43.703125 40.917969 43.722656 41.535156 43.730469 C 41.574219 43.730469 41.613281 43.730469 41.648438 43.726562 C 42.101562 43.667969 42.367188 43.460938 42.511719 43.375 C 42.519531 43.371094 42.527344 43.367188 42.535156 43.359375 C 43.050781 43.027344 43.425781 42.5625 43.679688 42.058594 C 43.796875 41.84375 43.917969 41.625 44.039062 41.410156 C 44.507812 41.097656 44.984375 40.789062 45.460938 40.457031 C 45.519531 40.414062 45.574219 40.367188 45.625 40.308594 C 46.160156 39.664062 46.421875 38.847656 46.382812 38.027344 L 46.382812 38.0625 C 46.382812 37.648438 46.382812 37.261719 46.402344 36.890625 C 46.621094 36.300781 46.894531 35.699219 47.15625 35.039062 C 47.171875 34.996094 47.1875 34.949219 47.195312 34.902344 C 47.324219 34.273438 47.1875 33.75 47.117188 33.375 C 47.113281 33.367188 47.113281 33.359375 47.109375 33.351562 C 47.015625 32.902344 46.914062 32.457031 46.8125 32.007812 C 49.765625 31.261719 53.453125 29.84375 57.59375 27.925781 C 57.746094 27.855469 57.894531 27.78125 58.046875 27.710938 C 58.109375 28.628906 58.128906 29.539062 58.039062 30.425781 C 57.773438 33.03125 57.695312 35.199219 57.773438 37.003906 C 57.132812 37.269531 56.515625 37.621094 55.964844 38.074219 C 55.046875 38.785156 54.230469 39.679688 53.667969 40.75 C 53.664062 40.757812 53.660156 40.769531 53.652344 40.78125 C 53.230469 41.679688 53.210938 42.632812 53.316406 43.476562 C 53.398438 44.246094 53.523438 44.972656 53.597656 45.671875 C 53.597656 45.675781 53.601562 45.683594 53.601562 45.691406 C 53.699219 46.429688 53.773438 47.203125 53.902344 47.996094 C 53.90625 48.027344 53.914062 48.0625 53.925781 48.09375 C 54.269531 49.273438 55.050781 50.246094 56 50.921875 C 56.890625 51.578125 57.933594 52.121094 59.113281 52.308594 C 59.121094 52.308594 59.125 52.3125 59.132812 52.3125 C 60.195312 52.453125 61.128906 52.226562 61.921875 52.144531 C 62.886719 52.058594 63.875 52.128906 64.835938 52.34375 C 64.847656 52.34375 64.855469 52.347656 64.867188 52.347656 C 65.792969 52.515625 66.835938 52.730469 67.964844 52.570312 C 67.96875 52.566406 67.972656 52.566406 67.976562 52.566406 C 69.601562 52.320312 70.953125 51.679688 72.238281 51.558594 C 72.242188 51.558594 72.242188 51.558594 72.242188 51.558594 C 73.476562 51.441406 74.894531 51.8125 76.511719 51.6875 C 77.097656 51.648438 77.652344 51.535156 78.171875 51.40625 L 78.175781 51.402344 C 79.480469 51.097656 80.671875 50.710938 81.824219 50.636719 C 82.925781 50.582031 84.160156 50.695312 85.480469 50.421875 C 85.492188 50.421875 85.507812 50.417969 85.523438 50.414062 C 86.820312 50.070312 87.910156 49.535156 88.957031 49.386719 C 90.023438 49.261719 91.292969 49.582031 92.761719 49.402344 C 92.773438 49.402344 92.785156 49.402344 92.796875 49.398438 C 93.792969 49.238281 94.5625 48.769531 95.230469 48.476562 C 95.234375 48.472656 95.238281 48.46875 95.246094 48.46875 C 96.058594 48.085938 96.910156 47.8125 97.769531 47.703125 C 97.777344 47.699219 97.785156 47.699219 97.792969 47.699219 C 98.507812 47.582031 99.351562 47.546875 100.242188 47.234375 C 100.242188 47.230469 100.242188 47.230469 100.246094 47.230469 C 101.140625 46.910156 101.9375 46.335938 102.519531 45.574219 C 103.175781 44.738281 103.609375 43.683594 103.59375 42.550781 C 103.59375 42.542969 103.589844 42.539062 103.589844 42.53125 C 103.554688 41.570312 103.203125 40.820312 103.054688 40.207031 C 103.054688 40.199219 103.050781 40.191406 103.050781 40.183594 C 102.816406 39.320312 102.671875 38.417969 102.554688 37.492188 C 102.554688 37.492188 102.554688 37.488281 102.554688 37.488281 C 102.476562 36.914062 102.390625 36.214844 102.003906 35.53125 C 101.546875 34.683594 100.847656 34.042969 100.097656 33.570312 C 99.488281 33.164062 98.824219 32.828125 98.125 32.578125 C 97.789062 30.128906 96.398438 26.988281 93.605469 22.960938 C 87.628906 14.34375 83.121094 12.457031 74.800781 12.464844 Z M 37.902344 26.070312 C 38.082031 26.066406 38.257812 26.074219 38.433594 26.105469 C 38.734375 26.160156 39.019531 26.28125 39.300781 26.398438 C 40.171875 26.769531 41.070312 27.066406 41.960938 27.382812 C 42.277344 27.507812 42.613281 27.625 42.847656 27.882812 C 43.242188 28.421875 43.527344 29.035156 43.949219 29.558594 C 44.371094 29.859375 44.808594 30.140625 45.242188 30.429688 C 45.5 30.59375 45.644531 30.878906 45.757812 31.152344 C 45.949219 31.941406 46.125 32.730469 46.296875 33.527344 C 46.371094 33.921875 46.460938 34.332031 46.378906 34.734375 C 46.117188 35.402344 45.8125 36.046875 45.570312 36.722656 C 45.542969 37.167969 45.550781 37.617188 45.550781 38.066406 C 45.578125 38.679688 45.378906 39.300781 44.984375 39.773438 C 44.464844 40.132812 43.9375 40.480469 43.410156 40.828125 C 43.257812 41.105469 43.101562 41.378906 42.949219 41.652344 C 42.753906 42.054688 42.460938 42.417969 42.085938 42.660156 C 41.917969 42.761719 41.746094 42.875 41.546875 42.898438 C 40.933594 42.890625 40.316406 42.871094 39.703125 42.886719 C 39.609375 42.894531 39.511719 42.875 39.421875 42.902344 C 38.976562 43.097656 38.542969 43.316406 38.105469 43.515625 C 37.492188 43.800781 36.761719 43.84375 36.128906 43.59375 C 35.699219 43.28125 35.273438 42.96875 34.839844 42.660156 C 34.738281 42.574219 34.617188 42.507812 34.480469 42.496094 C 34.019531 42.390625 33.542969 42.339844 33.078125 42.25 C 32.675781 42.179688 32.269531 42.011719 31.996094 41.699219 C 31.730469 41.15625 31.46875 40.617188 31.203125 40.074219 C 30.832031 39.761719 30.445312 39.476562 30.074219 39.164062 C 29.816406 38.902344 29.566406 38.609375 29.460938 38.25 C 29.449219 37.648438 29.542969 37.054688 29.566406 36.453125 C 29.496094 36.003906 29.351562 35.570312 29.207031 35.140625 C 29.015625 34.636719 28.941406 34.074219 29.070312 33.542969 C 29.261719 33.25 29.453125 32.960938 29.644531 32.667969 C 29.777344 32.441406 29.964844 32.246094 30.039062 31.992188 C 30.085938 31.585938 30.132812 31.179688 30.179688 30.773438 C 30.242188 30.46875 30.296875 30.152344 30.476562 29.890625 C 30.898438 29.519531 31.378906 29.234375 31.851562 28.941406 C 32.1875 28.539062 32.429688 28.074219 32.742188 27.65625 C 32.945312 27.402344 33.195312 27.15625 33.519531 27.066406 C 33.933594 27 34.355469 26.96875 34.777344 26.9375 C 34.988281 26.910156 35.207031 26.921875 35.414062 26.878906 C 35.785156 26.730469 36.148438 26.570312 36.511719 26.410156 C 36.730469 26.324219 36.933594 26.207031 37.15625 26.140625 C 37.230469 26.132812 37.300781 26.125 37.371094 26.113281 C 37.546875 26.09375 37.726562 26.078125 37.902344 26.070312 Z M 87.9375 32.414062 C 89.28125 32.429688 90.566406 32.863281 91.890625 33.027344 C 93.164062 33.1875 94.4375 32.921875 95.710938 32.945312 C 97.113281 32.992188 98.480469 33.496094 99.640625 34.265625 C 100.308594 34.683594 100.902344 35.242188 101.277344 35.9375 C 101.566406 36.441406 101.652344 37.027344 101.726562 37.597656 C 101.847656 38.539062 101.996094 39.484375 102.246094 40.402344 C 102.417969 41.121094 102.730469 41.816406 102.757812 42.5625 C 102.773438 43.46875 102.417969 44.355469 101.859375 45.0625 C 101.378906 45.695312 100.710938 46.179688 99.964844 46.449219 C 99.222656 46.707031 98.433594 46.753906 97.660156 46.875 C 96.699219 47 95.769531 47.304688 94.894531 47.710938 C 94.164062 48.035156 93.460938 48.449219 92.664062 48.578125 C 91.394531 48.730469 90.117188 48.410156 88.847656 48.558594 C 87.621094 48.734375 86.5 49.292969 85.3125 49.609375 C 84.148438 49.847656 82.953125 49.746094 81.773438 49.804688 C 80.476562 49.886719 79.238281 50.300781 77.980469 50.59375 C 77.480469 50.71875 76.96875 50.824219 76.453125 50.855469 C 75.019531 50.96875 73.59375 50.59375 72.160156 50.730469 C 70.683594 50.871094 69.3125 51.519531 67.851562 51.742188 C 66.902344 51.878906 65.945312 51.695312 65.015625 51.527344 C 63.976562 51.300781 62.902344 51.21875 61.84375 51.3125 C 60.980469 51.402344 60.113281 51.601562 59.242188 51.484375 C 58.234375 51.324219 57.300781 50.847656 56.488281 50.246094 C 55.667969 49.664062 55.007812 48.832031 54.722656 47.859375 C 54.597656 47.105469 54.527344 46.339844 54.425781 45.582031 C 54.347656 44.847656 54.222656 44.117188 54.140625 43.382812 C 54.050781 42.628906 54.078125 41.832031 54.40625 41.136719 C 54.90625 40.1875 55.640625 39.375 56.484375 38.722656 C 57.144531 38.183594 57.917969 37.792969 58.730469 37.542969 C 59.792969 37.242188 60.855469 36.921875 61.890625 36.523438 C 63.09375 36.082031 64.265625 35.507812 65.53125 35.257812 C 67.09375 35.007812 68.691406 35.03125 70.242188 34.714844 C 72.011719 34.296875 73.769531 33.800781 75.574219 33.5625 C 75.667969 33.550781 75.761719 33.535156 75.855469 33.523438 C 77.253906 33.351562 78.664062 33.375 80.070312 33.382812 C 81.25 33.417969 82.425781 33.25 83.574219 33.007812 C 85.011719 32.710938 86.460938 32.394531 87.9375 32.414062 Z M 87.9375 32.414062 "/>
<path style=" stroke:none;fill-rule:nonzero;fill:rgb(83.137255%,0%,0%);fill-opacity:1;" d="M 101.386719 78.542969 C 101.335938 78.542969 101.285156 78.542969 101.234375 78.542969 C 99.085938 78.804688 97.066406 79.613281 95.023438 80.28125 C 91.628906 81.414062 88.167969 82.425781 84.597656 82.792969 C 82.722656 82.984375 80.839844 83 78.964844 82.867188 C 78.476562 82.117188 77.722656 81.535156 76.871094 81.261719 C 75.9375 80.921875 74.953125 80.765625 73.996094 80.519531 C 73.074219 80.316406 72.15625 80.101562 71.21875 79.996094 C 71.15625 79.992188 71.097656 79.996094 71.035156 79.996094 C 70.246094 80.0625 69.460938 80.339844 68.820312 80.808594 C 66.828125 80.253906 64.835938 79.710938 62.816406 79.265625 C 61.75 79.128906 60.59375 79.332031 59.75 80.03125 C 58.972656 80.679688 58.5625 81.636719 58.140625 82.535156 C 57.675781 83.492188 57.171875 84.484375 57.132812 85.574219 C 57.097656 87.070312 58.085938 88.511719 59.464844 89.074219 C 60.820312 89.753906 62.210938 90.371094 63.625 90.921875 C 64.242188 91.148438 64.863281 91.355469 65.496094 91.542969 C 64.179688 97.667969 62.890625 103.800781 61.710938 109.953125 C 61.402344 111.574219 61.171875 113.210938 60.976562 114.847656 C 60.851562 115.839844 60.742188 116.832031 60.589844 117.820312 C 60.410156 118.421875 59.429688 119.875 59.160156 120.4375 C 59.058594 120.59375 58.980469 120.8125 59.125 120.96875 C 59.304688 121.222656 59.730469 121.257812 59.925781 121 C 60.132812 120.828125 60.976562 119.722656 61.210938 119.585938 C 61.394531 119.582031 61.464844 119.808594 61.386719 119.972656 C 61.25 120.257812 60.652344 121.328125 60.730469 121.636719 C 60.808594 121.953125 61.433594 121.757812 61.648438 121.515625 C 61.855469 121.28125 62.382812 120.378906 62.679688 120.277344 C 62.894531 120.203125 62.34375 121.226562 62.28125 121.722656 C 62.242188 122.023438 62.058594 122.449219 62.300781 122.628906 C 62.53125 122.796875 62.976562 122.699219 63.128906 122.394531 C 63.277344 122.097656 64.0625 120.855469 64.316406 120.636719 C 64.46875 120.507812 64.65625 120.8125 64.605469 121.007812 C 64.523438 121.328125 64.054688 122.621094 64.183594 122.925781 C 64.339844 123.289062 64.96875 123.058594 65.140625 122.703125 C 65.292969 122.382812 65.765625 121.105469 66.039062 120.878906 C 66.222656 120.730469 66.539062 120.890625 66.515625 121.125 C 66.480469 121.476562 66.21875 122.960938 66.410156 123.257812 C 66.621094 123.582031 67.265625 123.296875 67.367188 122.921875 C 67.460938 122.582031 67.570312 121.171875 67.8125 120.914062 C 67.988281 120.722656 68.222656 121.117188 68.195312 121.371094 C 68.15625 121.757812 68.449219 122.902344 68.695312 123.207031 C 68.992188 123.574219 69.636719 123.117188 69.621094 122.648438 C 69.613281 122.242188 69.21875 121.210938 69.300781 120.8125 C 69.335938 120.65625 69.613281 120.8125 69.640625 120.972656 C 69.726562 121.488281 70.40625 122.671875 70.761719 123.058594 C 71.074219 123.402344 71.710938 122.800781 71.558594 122.359375 C 71.4375 121.722656 70.714844 120.445312 70.6875 119.796875 C 71.792969 116.707031 72.492188 113.492188 73.128906 110.277344 C 74.351562 104.589844 75.617188 98.910156 77.105469 93.285156 C 81.75 93.5 86.417969 93.261719 91.027344 92.667969 C 93.296875 92.363281 95.539062 91.882812 97.726562 91.203125 C 99.460938 90.738281 101.1875 90.203125 102.789062 89.375 C 103.746094 88.839844 104.484375 87.902344 104.714844 86.820312 C 104.976562 85.777344 104.808594 84.691406 104.636719 83.648438 C 104.417969 82.238281 104.015625 80.847656 103.378906 79.570312 C 102.929688 78.929688 102.15625 78.578125 101.386719 78.542969 Z M 101.386719 78.542969 "/>
</g>
</svg>
